#define browser_width 24
#define browser_height 24
static unsigned char browser_bits[] = {
   0x00, 0x00, 0x00, 0x00, 0x00, 0x00, 0x00, 0x00, 0x00, 0x00, 0x00, 0x00,
   0x00, 0x00, 0x00, 0xf0, 0xff, 0x0f, 0x10, 0x00, 0x08, 0x10, 0xa0, 0x0a,
   0x10, 0x00, 0x08, 0xf0, 0xff, 0x0f, 0x10, 0x00, 0x08, 0x10, 0x00, 0x08,
   0x00, 0x24, 0x00, 0x10, 0x92, 0x08, 0x00, 0x89, 0x08, 0x90, 0x84, 0x0a,
   0x40, 0x02, 0x05, 0x00, 0x00, 0x00, 0x10, 0x00, 0x08, 0x10, 0x00, 0x08,
   0xf0, 0xff, 0x0f, 0x00, 0x00, 0x00, 0x00, 0x00, 0x00, 0x00, 0x00, 0x00 };
