/* XPM */
static char * hsLambda_xpm[] = {
"24 26 5 1",
" 	c None",
".	c #4B85B7",
"+	c #5CA2DD",
"@	c #8553A2",
"#	c #9A5EBC",
"                        ",
"                        ",
"                        ",
"                        ",
"                        ",
"                        ",
"                        ",
"                        ",
"                        ",
" .++.  @##@             ",
"  .++.  @##@            ",
"   .++.  @##@   .++++++ ",
"    .++.  @##@   .+++++ ",
"     .++.  @##@   .++++ ",
"      .++.  @##@        ",
"     .++.  @####@   .++ ",
"    .++.  @##@@##@   .+ ",
"   .++.  @##@  @##@   . ",
"  .++.  @##@    @##@    ",
" .++.  @##@      @##@   ",
"                        ",
"                        ",
"                        ",
"                        ",
"                        ",
"                        "};
