/* XPM */
static char * three_xpm[] = {
"24 26 11 1",
" 	c None",
".	c #7ACBEA",
"+	c #517B91",
"@	c #3D4F60",
"#	c #373E4D",
"$	c #4A6D81",
"%	c #77C6E5",
"&	c #75C2E1",
"*	c #394554",
"=	c #73BDDB",
"-	c #76C6E5",
"........................",
"........................",
"........................",
"........................",
"........................",
"........................",
".+@###################$.",
".%$@####@@####@@#####$%.",
"...&$##$.&$##$&.$##$&...",
"....$*#$..$*#$..$*#$....",
"....$*#$..$*#$..$*#$....",
"....$*#$..$*#$..$*#$....",
"....$*#$..$*#$..$*#$....",
"....$*#$..$*#$..$*#$....",
"....$*#$..$*#$..$*#$....",
"....$*#$..$*#$..$*#$....",
"....$*#$..$*#$..$*#$....",
"....$*#$..$*#$..$*#$....",
"....$*#$..$*#$..$*#$....",
"...=$##$.=$##$-.$##$-...",
".%+@####+@####+@#####+%.",
".+@###################+.",
"........................",
"........................",
"........................",
"........................"};
