/* XPM */
static char * two_xpm[] = {
"24 26 20 1",
" 	c None",
".	c #7ACBEA",
"+	c #517B91",
"@	c #3D4F60",
"#	c #373E4D",
"$	c #4A6D81",
"%	c #77C6E5",
"&	c #415668",
"*	c #415769",
"=	c #3D4E5F",
"-	c #75C2E1",
";	c #73BEDC",
">	c #78C7E5",
",	c #394554",
"'	c #73BDDB",
")	c #76C6E5",
"!	c #3D4D5D",
"~	c #415567",
"{	c #41586A",
"]	c #3D4B5B",
"........................",
"........................",
"........................",
"........................",
"........................",
"........................",
"...+@###############$...",
"...%$@####&**=#####$%...",
".....-$##$;>.-$##$-.....",
"......$,#$....$,#$......",
"......$,#$....$,#$......",
"......$,#$....$,#$......",
"......$,#$....$,#$......",
"......$,#$....$,#$......",
"......$,#$....$,#$......",
"......$,#$....$,#$......",
"......$,#$....$,#$......",
"......$,#$....$,#$......",
"......$,#$....$,#$......",
".....'$##$)..'$##$).....",
"...%+@###!~{{*]####+%...",
"...+@###############+...",
"........................",
"........................",
"........................",
"........................"};
